<svg width="19" height="19" viewBox="0 0 19 19" fill="none" xmlns="http://www.w3.org/2000/svg">
<path fill-rule="evenodd" clip-rule="evenodd" d="M9.5 0.5C4.25204 0.5 0 4.62997 0 9.72726C0 13.8026 2.72175 17.2629 6.49721 18.4832C6.97379 18.5677 7.14638 18.2848 7.14638 18.0387C7.14638 17.8188 7.13767 17.239 7.1345 16.4701C4.49033 17.026 3.93379 15.2329 3.93379 15.2329C3.50075 14.1663 2.87929 13.8811 2.87929 13.8811C2.01638 13.3105 2.94421 13.3228 2.94421 13.3228C3.89658 13.3889 4.39771 14.2717 4.39771 14.2717C5.24479 15.6835 6.62071 15.2752 7.16221 15.0406C7.24929 14.4432 7.49629 14.0372 7.76546 13.8065C5.65646 13.575 3.439 12.7823 3.439 9.24668C3.439 8.23706 3.81029 7.4143 4.41592 6.76839C4.32013 6.53771 3.99237 5.59729 4.50854 4.32701C4.50854 4.32701 5.30654 4.08095 7.12183 5.2728C7.89702 5.0682 8.6967 4.96425 9.5 4.96369C10.3075 4.96676 11.1205 5.06826 11.8782 5.2728C13.6935 4.08095 14.4883 4.32701 14.4883 4.32701C15.0076 5.59729 14.683 6.53771 14.5833 6.76839C15.1929 7.4143 15.5578 8.23706 15.5578 9.24668C15.5578 12.7915 13.338 13.5689 11.2227 13.8003C11.5631 14.0825 11.8655 14.6469 11.8655 15.5066C11.8655 16.7408 11.8568 17.735 11.8568 18.0387C11.8568 18.2848 12.0262 18.5731 12.5091 18.4832C16.2814 17.2606 19 13.8026 19 9.72726C19 4.62997 14.748 0.5 9.5 0.5Z" fill="white"/>
</svg>
