<svg width="16" height="23" viewBox="0 0 16 23" fill="none" xmlns="http://www.w3.org/2000/svg">
<path fill-rule="evenodd" clip-rule="evenodd" d="M8.00672 5.12561L2.55713 5.09277L5.23327 22H5.81715H11.1694H11.7533L14.4295 5.09277L8.00672 5.12561Z" fill="#1A273C"/>
<path fill-rule="evenodd" clip-rule="evenodd" d="M6.54918 5.03302L1.5 5L3.97951 22H4.52049H9.47951H10.0205L12.5 5L6.54918 5.03302Z" fill="#435B81"/>
<path fill-rule="evenodd" clip-rule="evenodd" d="M8.18518 5.03302L3 5L5.5463 22H6.10185H9.89815H10.4537L13 5L8.18518 5.03302Z" fill="#263B5D"/>
<path fill-rule="evenodd" clip-rule="evenodd" d="M1 5.09286H15.0619V3.53369H1V5.09286Z" fill="white"/>
<path fill-rule="evenodd" clip-rule="evenodd" d="M1 5.09286H15.0619V3.53369H1V5.09286Z" stroke="black" stroke-width="0.729856"/>
<path fill-rule="evenodd" clip-rule="evenodd" d="M12.3371 1H8.97979H6.98485H3.62751L2.60571 3.33875H6.98485H8.97979H13.3589L12.3371 1Z" fill="white"/>
<path fill-rule="evenodd" clip-rule="evenodd" d="M12.3371 1H8.97979H6.98485H3.62751L2.60571 3.33875H6.98485H8.97979H13.3589L12.3371 1Z" stroke="#050505" stroke-width="0.729856"/>
<path fill-rule="evenodd" clip-rule="evenodd" d="M8.00672 5.12561L1.58398 5.09277L4.26012 22H4.84401H11.1694H11.7533L14.4294 5.09277L8.00672 5.12561Z" stroke="black" stroke-width="0.729856"/>
<path fill-rule="evenodd" clip-rule="evenodd" d="M14.6242 9.86768H8.21309H7.75192H1.34082L2.54002 16.5916L7.98251 16.533L13.425 16.5916L14.6242 9.86768Z" fill="white"/>
<path fill-rule="evenodd" clip-rule="evenodd" d="M14.6242 9.86768H8.21309H7.75192H1.34082L2.54002 16.5916L7.98251 16.533L13.425 16.5916L14.6242 9.86768Z" stroke="black" stroke-width="0.729856"/>
</svg>
